<svg width="48" height="48" viewBox="0 0 48 48" fill="none" xmlns="http://www.w3.org/2000/svg">
<rect width="48" height="48" rx="8" fill="white"/>
<path d="M20.0703 13.3984V24.6016C20.6484 24.7578 21.8672 24.8359 23.7266 24.8359C26.1016 24.8359 27.8828 24.25 29.0703 23.0781C30.2734 21.9062 30.875 20.0625 30.875 17.5469C30.875 14.7656 30.2656 12.8672 29.0469 11.8516C27.8281 10.8359 26.2266 10.3281 24.2422 10.3281C21.4609 10.3281 20.0703 11.3516 20.0703 13.3984ZM15.9922 14.8984C15.9922 12.9766 15.7422 11.7891 15.2422 11.3359C14.7578 10.8672 13.6172 10.6016 11.8203 10.5391C11.6641 10.4141 11.5859 10.1563 11.5859 9.76562C11.5859 9.375 11.6641 9.10156 11.8203 8.94531C15.0234 9.00781 17.0859 9.03906 18.0078 9.03906C18.7109 9.03906 19.8906 8.98438 21.5469 8.875C23.2188 8.76562 24.2344 8.71094 24.5938 8.71094C26.6719 8.71094 28.4609 8.98438 29.9609 9.53125C31.4609 10.0625 32.5781 10.7734 33.3125 11.6641C34.0469 12.5391 34.5625 13.3828 34.8594 14.1953C35.1719 15.0078 35.3281 15.8359 35.3281 16.6797C35.3281 17.8047 35.1328 18.9062 34.7422 19.9844C34.3672 21.0469 33.7734 22.0859 32.9609 23.1016C32.1484 24.1016 30.9609 24.9141 29.3984 25.5391C27.8516 26.1484 26.0391 26.4531 23.9609 26.4531C22.3672 26.4531 21.0703 26.2969 20.0703 25.9844V34.1406C20.0703 36.0312 20.375 37.2109 20.9844 37.6797C21.5938 38.1328 22.9219 38.4141 24.9688 38.5234C25.125 38.6797 25.2031 38.9531 25.2031 39.3438C25.2031 39.7188 25.125 39.9688 24.9688 40.0938C21.7656 40.0312 19.4609 40 18.0547 40C17.0234 40 14.9453 40.0312 11.8203 40.0938C11.6641 39.9688 11.5859 39.7188 11.5859 39.3438C11.5859 38.9531 11.6641 38.6797 11.8203 38.5234C13.6172 38.4609 14.7578 38.1953 15.2422 37.7266C15.7422 37.2578 15.9922 36.0625 15.9922 34.1406V14.8984Z" fill="black"/>
</svg>
